<?xml version="1.0" encoding="UTF-8" standalone="no" ?>
<!DOCTYPE svg PUBLIC "-//W3C//DTD SVG 1.1//EN" "http://www.w3.org/Graphics/SVG/1.1/DTD/svg11.dtd">
<svg xmlns="http://www.w3.org/2000/svg" xmlns:xlink="http://www.w3.org/1999/xlink" version="1.1" width="640" height="480" viewBox="0 0 640 480" xml:space="preserve">
<desc>Created with Fabric.js 3.6.6</desc>
<defs>
</defs>
<rect x="0" y="0" width="100%" height="100%" fill="rgba(168, 113, 113, 0)"></rect>
<g transform="matrix(1 0 0 1 131.04 13.11)"  >
<g style=""   >
		<g transform="matrix(0.07 0 0 0.07 -117.33 0)"  >
<path style="stroke: none; stroke-width: 1; stroke-dasharray: none; stroke-linecap: butt; stroke-dashoffset: 0; stroke-linejoin: miter; stroke-miterlimit: 4; fill: rgb(255,134,0); fill-rule: evenodd; opacity: 1;"  transform=" translate(-203.34, -199.59)" d="M 181.551 29.714 C 180.243 31.022 179.592 38.235 179.592 51.403 L 179.592 71.132 L 170.953 79.663 C 162.501 88.011 162.154 88.172 154.864 87.173 C 130.395 83.819 117.563 117.6 139.374 127.95 C 155.714 135.704 173.061 126.893 173.061 110.84 C 173.061 103.465 173.478 102.816 186.122 90.512 L 199.184 77.801 L 199.184 56.966 C 199.184 30.92 198.162 27.755 189.755 27.755 C 186.32 27.755 182.629 28.637 181.551 29.714 M 226.531 31.151 C 223.931 32.665 223.675 36.446 223.692 73.142 L 223.711 113.469 L 210.693 125.714 C 198.622 137.068 197.217 137.924 191.395 137.472 C 171.487 135.929 160.171 160.925 174.357 175.11 C 188.833 189.587 213.673 178.007 211.95 157.585 C 211.46 151.766 212.276 150.527 225.714 136.704 L 240 122.009 L 240 77.29 L 240 32.572 L 235.812 30.98 C 230.711 29.041 230.136 29.051 226.531 31.151 M 263.013 56.446 C 252.602 65.206 252.959 82.402 263.73 90.996 L 269.388 95.51 L 269.388 124.92 L 269.388 154.329 L 246.531 177.143 L 223.673 199.956 L 223.673 253.172 L 223.673 306.387 L 219.868 308.423 C 207.288 315.156 207.11 340.732 219.604 346.425 C 223.15 348.041 223.587 349.368 224.015 359.823 L 224.49 371.429 L 231.837 371.429 L 239.184 371.429 L 239.659 359.823 C 240.087 349.368 240.524 348.041 244.07 346.425 C 248.841 344.251 253.049 336.572 253.75 328.759 C 254.177 323.996 256.858 320.353 269.174 307.799 L 284.082 292.604 L 284.082 251.178 L 284.082 209.751 L 306.122 187.755 L 328.163 165.76 L 328.163 126.854 C 328.163 83.687 327.755 81.633 319.184 81.633 C 310.71 81.633 310.204 83.948 310.204 122.76 L 310.204 157.572 L 288.98 179.219 L 267.755 200.865 L 267.755 241.287 L 267.755 281.709 L 255.016 294.374 C 248.009 301.339 241.764 306.526 241.138 305.9 C 240.512 305.274 240 283.35 240 257.179 L 240 209.596 L 263.673 186.066 L 287.347 162.537 L 287.347 129.322 L 287.347 96.107 L 293.061 90.718 C 313.814 71.146 284.831 38.088 263.013 56.446 M 93.994 59.708 C 91.847 61.856 91.429 67.198 91.429 92.489 L 91.429 122.704 L 113.469 144.937 C 136.777 168.448 139.539 173.243 131.528 176.289 C 113.186 183.263 123.935 217.143 144.49 217.143 C 166.5 217.143 176.559 180.545 155.969 175.377 C 152.157 174.42 151.837 173.624 151.837 165.106 L 151.837 155.871 L 130.612 134.694 L 109.388 113.517 L 109.388 88.958 C 109.388 58.971 104.334 49.368 93.994 59.708 M 280.528 74.013 C 280.884 75.848 279.953 76.735 277.671 76.735 C 275.809 76.735 274.286 75.755 274.286 74.558 C 274.286 69.557 279.574 69.096 280.528 74.013 M 52.571 101.551 C 51.209 102.913 50.612 111.551 50.612 129.896 L 50.612 156.281 L 36.735 169.514 C 24.034 181.625 22.857 183.279 22.857 189.007 C 22.857 204.812 30.627 202.956 51.492 182.167 L 68.571 165.15 L 68.571 134.061 C 68.571 104.995 68.366 102.862 65.413 101.282 C 61.176 99.014 54.978 99.144 52.571 101.551 M 153.015 106.321 C 155.293 108.599 153.904 112.653 150.846 112.653 C 149.508 112.653 148.571 110.972 148.571 108.571 C 148.571 104.175 150.096 103.403 153.015 106.321 M 95.057 152.746 C 91.554 155.2 91.429 156.228 91.429 182.565 L 91.429 209.843 L 112.653 231.02 L 133.878 252.198 L 133.878 307.813 C 133.878 368.154 133.754 367.347 143.009 367.347 C 149.449 367.347 150.204 365.574 150.204 350.458 L 150.204 338.733 L 173.878 315.102 L 197.551 291.471 L 197.551 270.009 L 197.551 248.547 L 204.082 242.017 C 220.459 225.64 205.162 198.076 183.008 204.041 C 166.679 208.438 161.771 229.725 174.077 242.773 L 179.592 248.62 L 179.592 265.681 L 179.592 282.742 L 165.306 296.589 L 151.02 310.436 L 150.204 275.426 L 149.388 240.417 L 129.388 220.478 L 109.388 200.54 L 109.388 178.637 C 109.388 151.815 105.755 145.252 95.057 152.746 M 193.998 158.916 C 194.671 162.385 189.529 164.504 187.684 161.517 C 186.094 158.945 188.961 154.688 191.674 155.591 C 192.661 155.92 193.707 157.416 193.998 158.916 M 348.091 180.911 C 338.217 190.135 338.078 205.825 347.79 214.991 C 352.302 219.25 352.653 220.421 352.653 231.229 L 352.653 242.876 L 331.441 263.887 L 310.228 284.898 L 310.216 301.54 C 310.205 316.894 310.485 318.379 313.833 320.724 C 322.77 326.984 328.163 321.02 328.163 304.875 L 328.163 293.016 L 350.204 271.02 L 372.245 249.025 L 372.245 233.993 C 372.245 221.395 372.721 218.615 375.184 216.827 C 386.863 208.35 386.664 186.769 374.835 179.018 C 367.809 174.414 353.999 175.391 348.091 180.911 M 148.023 193.579 C 149.509 197.451 146.027 200.182 142.906 197.592 C 140.972 195.987 140.809 194.953 142.221 193.253 C 144.665 190.307 146.814 190.428 148.023 193.579 M 365.714 198.367 C 365.714 199.728 364.263 200.816 362.449 200.816 C 360.635 200.816 359.184 199.728 359.184 198.367 C 359.184 197.007 360.635 195.918 362.449 195.918 C 364.263 195.918 365.714 197.007 365.714 198.367 M 44.275 215.139 C 33.498 225.391 33.217 237.976 43.546 247.718 L 49.264 253.11 L 48.756 274.718 C 48.189 298.878 48.624 300.408 56.06 300.408 C 67.429 300.408 68.571 297.945 68.571 273.434 C 68.571 253.252 68.825 251.408 71.82 249.805 C 80.28 245.277 82.723 228.197 76.278 218.633 C 68.341 206.855 54.564 205.351 44.275 215.139 M 192.653 225.532 C 192.653 228.037 187.67 229.139 185.618 227.088 C 184.15 225.619 184.237 224.839 185.988 223.757 C 188.572 222.16 192.653 223.247 192.653 225.532 M 61.753 230.752 C 62.426 234.222 57.285 236.34 55.439 233.354 C 53.849 230.782 56.716 226.525 59.429 227.428 C 60.416 227.757 61.462 229.253 61.753 230.752 M 93.878 248.505 C 78.314 253.96 75.603 274.563 89.038 285.283 L 94.694 289.796 L 94.694 316.816 C 94.694 346.414 95.095 347.755 103.943 347.755 C 111.809 347.755 112.653 344.653 112.653 315.736 L 112.653 290.034 L 117.835 285.708 C 124.143 280.442 126.174 266.126 122.022 256.19 C 118.519 247.806 105.788 244.33 93.878 248.505 M 105.574 267.049 C 107.06 270.92 103.578 273.651 100.457 271.061 C 98.523 269.456 98.36 268.423 99.772 266.722 C 102.216 263.776 104.365 263.897 105.574 267.049 M 235.102 326.531 C 235.102 328.707 234.014 329.796 231.837 329.796 C 229.66 329.796 228.571 328.707 228.571 326.531 C 228.571 324.354 229.66 323.265 231.837 323.265 C 234.014 323.265 235.102 324.354 235.102 326.531" stroke-linecap="round" />
</g>
		<g transform="matrix(1 0 0 1 15.56 1.23)" style=""  >
		<text xml:space="preserve" font-family="'Open Sans', sans-serif" font-size="14" font-style="normal" font-weight="bold" style="stroke: none; stroke-width: 1; stroke-dasharray: none; stroke-linecap: butt; stroke-dashoffset: 0; stroke-linejoin: miter; stroke-miterlimit: 4; fill: rgb(0,255,251); fill-rule: nonzero; opacity: 1; white-space: pre;" ><tspan x="-113.94" y="4.4" >W</tspan><tspan x="-101.4" y="4.4" >O</tspan><tspan x="-91.26" y="4.4" >W</tspan><tspan x="-78.73" y="4.4" style="white-space: pre; "> </tspan><tspan x="-76.09" y="4.4" >D</tspan><tspan x="-66.73" y="4.4" >i</tspan><tspan x="-63.45" y="4.4" >g</tspan><tspan x="-56.54" y="4.4" >i</tspan><tspan x="-53.27" y="4.4" >t</tspan><tspan x="-48.19" y="4.4" >a</tspan><tspan x="-40.74" y="4.4" >l</tspan><tspan x="-37.47" y="4.4" style="white-space: pre; "> </tspan><tspan x="-34.83" y="4.4" >I</tspan><tspan x="-31.19" y="4.4" >n</tspan><tspan x="-22.99" y="4.4" >f</tspan><tspan x="-18.57" y="4.4" >o</tspan><tspan x="-10.9" y="4.4" >r</tspan><tspan x="-5.55" y="4.4" >m</tspan><tspan x="7.2" y="4.4" >a</tspan><tspan x="14.66" y="4.4" >t</tspan><tspan x="19.73" y="4.4" >i</tspan><tspan x="23.01" y="4.4" >o</tspan><tspan x="30.67" y="4.4" >n</tspan><tspan x="38.87" y="4.4" style="white-space: pre; "> </tspan><tspan x="41.51" y="4.4" >T</tspan><tspan x="48.62" y="4.4" >e</tspan><tspan x="55.89" y="4.4" >c</tspan><tspan x="62.09" y="4.4" >h</tspan><tspan x="70.29" y="4.4" >n</tspan><tspan x="78.49" y="4.4" >o</tspan><tspan x="86.16" y="4.4" >l</tspan><tspan x="89.43" y="4.4" >o</tspan><tspan x="97.1" y="4.4" >g</tspan><tspan x="104.01" y="4.4" >y</tspan></text>
</g>
</g>
</g>
</svg>