<?xml version="1.0" encoding="UTF-8" standalone="no" ?>
<!DOCTYPE svg PUBLIC "-//W3C//DTD SVG 1.1//EN" "http://www.w3.org/Graphics/SVG/1.1/DTD/svg11.dtd">
<svg xmlns="http://www.w3.org/2000/svg" xmlns:xlink="http://www.w3.org/1999/xlink" version="1.1" width="200" height="200" viewBox="0 0 200 200" xml:space="preserve">
<desc>Created with Fabric.js 3.6.6</desc>
<defs>
</defs>
<g transform="matrix(0.97 0 0 0.97 125.28 141.27)"  >
<rect style="stroke: none; stroke-width: 1; stroke-dasharray: none; stroke-linecap: butt; stroke-dashoffset: 0; stroke-linejoin: miter; stroke-miterlimit: 4; fill: rgb(168,113,113); fill-opacity: 0; fill-rule: nonzero; opacity: 1;" vector-effect="non-scaling-stroke"  x="-50" y="-50" rx="0" ry="0" width="100" height="100" />
</g>
<g transform="matrix(0.97 0 0 0.97 829.4 324.92)" style=""  >
		<text xml:space="preserve" font-family="'Open Sans', sans-serif" font-size="20" font-style="normal" font-weight="normal" style="stroke: none; stroke-width: 1; stroke-dasharray: none; stroke-linecap: butt; stroke-dashoffset: 0; stroke-linejoin: miter; stroke-miterlimit: 4; fill: rgb(0,0,0); fill-rule: nonzero; opacity: 1; white-space: pre;" ><tspan x="-126.4" y="6.28" >Lorem ipsumdolor sit amet</tspan></text>
</g>
<g transform="matrix(0.97 0 0 0.97 579.74 456.42)"  >
<linearGradient id="SVGID_SVGID_47_69" gradientUnits="userSpaceOnUse" gradientTransform="matrix(1 0 0 1 -65 -65)"  x1="0" y1="0" x2="130" y2="130">
<stop offset="0%" style="stop-color:rgb(209,80,255);stop-opacity: 1"/>
<stop offset="100%" style="stop-color:rgb(0,0,255);stop-opacity: 1"/>
</linearGradient>
<circle style="stroke: none; stroke-width: 1; stroke-dasharray: none; stroke-linecap: butt; stroke-dashoffset: 0; stroke-linejoin: miter; stroke-miterlimit: 4; fill: url(#SVGID_SVGID_47_69); fill-rule: nonzero; opacity: 1;" vector-effect="non-scaling-stroke"  cx="0" cy="0" r="65" />
</g>
<g transform="matrix(0.97 0 0 0.97 402.56 247.61)"  >
<path style="stroke: none; stroke-width: 1; stroke-dasharray: none; stroke-linecap: butt; stroke-dashoffset: 0; stroke-linejoin: miter; stroke-miterlimit: 4; fill: rgb(255,255,255); fill-rule: nonzero; opacity: 1;" vector-effect="non-scaling-stroke"  transform=" translate(-107.98, -10.21)" d="M 5.304586 14.0730008 C 7.89749931 14.0730008 9.77785629 12.0738844 9.77785629 8.86738093 C 9.77785629 5.66087746 7.89749931 3.66176109 5.304586 3.66176109 C 2.7116727 3.66176109 0.831315717 5.66087746 0.831315717 8.86738093 C 0.831315717 12.0738844 2.7116727 14.0730008 5.304586 14.0730008 Z M 5.304586 12.9249934 C 3.46381549 12.9249934 2.0189096 11.4998807 2.0189096 8.86738093 C 2.0189096 6.23488116 3.46381549 4.80976851 5.304586 4.80976851 C 7.14535652 4.80976851 8.59026241 6.23488116 8.59026241 8.86738093 C 8.59026241 11.4998807 7.14535652 12.9249934 5.304586 12.9249934 Z M 12.8458173 16.7846735 L 12.8458173 12.7666475 L 12.9447834 12.7666475 C 13.2020954 13.1823054 13.6969262 14.092794 15.1616253 14.092794 C 17.0617755 14.092794 18.387922 12.5687152 18.387922 10.153941 C 18.387922 7.75895998 17.0617755 6.23488116 15.1418321 6.23488116 C 13.6573398 6.23488116 13.2020954 7.14536981 12.9447834 7.54123443 L 12.8062308 7.54123443 L 12.8062308 6.33384732 L 11.6780166 6.33384732 L 11.6780166 16.7846735 L 12.8458173 16.7846735 Z M 15.0032795 13.0437527 C 13.5979601 13.0437527 12.826024 11.8561589 12.826024 10.1341477 C 12.826024 8.43192984 13.5781668 7.28392243 15.0032795 7.28392243 C 16.4877718 7.28392243 17.2201214 8.530896 17.2201214 10.1341477 C 17.2201214 11.7571927 16.4679786 13.0437527 15.0032795 13.0437527 Z M 23.3560312 14.092794 C 24.8999033 14.092794 26.0281174 13.320858 26.3843956 12.1728506 L 25.2561814 11.8561589 C 24.959283 12.6478881 24.2714682 13.0437527 23.3560312 13.0437527 C 21.9853499 13.0437527 21.0402231 12.1580056 20.9857918 10.5300124 L 26.503155 10.5300124 L 26.503155 10.0351816 C 26.503155 7.2047495 24.8207303 6.23488116 23.2372718 6.23488116 C 21.1787758 6.23488116 19.8130428 7.85792614 19.8130428 10.1935274 C 19.8130428 12.5291287 21.1589825 14.092794 23.3560312 14.092794 Z M 25.3155611 9.52055757 L 20.9857918 9.52055757 C 21.0649647 8.337912 21.9012287 7.28392243 23.2372718 7.28392243 C 24.5040386 7.28392243 25.3155611 8.23399753 25.3155611 9.52055757 Z M 29.4523542 13.9344482 L 29.4523542 9.36221172 C 29.4523542 8.03606522 30.2737733 7.28392243 31.3920909 7.28392243 C 32.4757703 7.28392243 33.1338952 7.99153045 33.1338952 9.18407264 L 33.1338952 13.9344482 L 34.3016959 13.9344482 L 34.3016959 9.10489971 C 34.3016959 7.16516304 33.2674995 6.23488116 31.7285758 6.23488116 C 30.5805684 6.23488116 29.8680121 6.74950518 29.5117339 7.5214412 L 29.4127677 7.5214412 L 29.4127677 6.33384732 L 28.2845536 6.33384732 L 28.2845536 13.9344482 L 29.4523542 13.9344482 Z M 41.7439624 13.9344482 L 41.7439624 9.40179818 L 47.1475145 9.40179818 L 47.1475145 13.9344482 L 48.3746949 13.9344482 L 48.3746949 3.80031371 L 47.1475145 3.80031371 L 47.1475145 8.31317046 L 41.7439624 8.31317046 L 41.7439624 3.80031371 L 40.516782 3.80031371 L 40.516782 13.9344482 L 41.7439624 13.9344482 Z M 53.8574298 14.092794 C 55.4013019 14.092794 56.529516 13.320858 56.8857942 12.1728506 L 55.75758 11.8561589 C 55.4606816 12.6478881 54.7728668 13.0437527 53.8574298 13.0437527 C 52.4867485 13.0437527 51.5416217 12.1580056 51.4871904 10.5300124 L 57.0045536 10.5300124 L 57.0045536 10.0351816 C 57.0045536 7.2047495 55.3221289 6.23488116 53.7386704 6.23488116 C 51.6801744 6.23488116 50.3144414 7.85792614 50.3144414 10.1935274 C 50.3144414 12.5291287 51.6603811 14.092794 53.8574298 14.092794 Z M 55.8169597 9.52055757 L 51.4871904 9.52055757 C 51.5663633 8.337912 52.4026273 7.28392243 53.7386704 7.28392243 C 55.0054372 7.28392243 55.8169597 8.23399753 55.8169597 9.52055757 Z M 61.0225873 14.1125872 C 62.3487338 14.1125872 63.0414969 13.4000309 63.2790157 12.9052001 L 63.3383954 12.9052001 L 63.3383954 13.9344482 L 64.506196 13.9344482 L 64.506196 8.92676063 C 64.506196 6.5119864 62.6654255 6.23488116 61.6955572 6.23488116 C 60.5475497 6.23488116 59.2411965 6.63074579 58.6473995 8.01627199 L 59.7558205 8.41213661 C 60.0131325 7.85792614 60.6217744 7.2641292 61.7351436 7.2641292 C 62.8089264 7.2641292 63.3383954 7.8331846 63.3383954 8.80800124 L 63.3383954 8.8475877 C 63.3383954 9.4116948 62.7643917 9.36221172 61.3788655 9.5403508 C 59.9685977 9.72343819 58.429674 10.0351816 58.429674 11.7769859 C 58.429674 13.2614783 59.5776814 14.1125872 61.0225873 14.1125872 Z M 61.2007264 13.063546 C 60.2704445 13.063546 59.5974746 12.6478881 59.5974746 11.8363656 C 59.5974746 10.9456702 60.4089971 10.668565 61.3194858 10.5498056 C 61.8143166 10.4904259 63.1404631 10.3518733 63.3383954 10.1143545 L 63.3383954 11.183189 C 63.3383954 12.1332641 62.5862526 13.063546 61.2007264 13.063546 Z M 67.8116731 13.9344482 L 67.8116731 3.80031371 L 66.6438725 3.80031371 L 66.6438725 13.9344482 L 67.8116731 13.9344482 Z M 72.5224654 14.0334143 C 72.9579165 14.0334143 73.2350217 13.9542414 73.3933675 13.8948617 L 73.1558488 12.8458204 C 73.0568826 12.8656137 72.8985368 12.9052001 72.6412248 12.9052001 C 72.1266007 12.9052001 71.63177 12.7468543 71.63177 11.7571927 L 71.63177 7.32350889 L 73.2548149 7.32350889 L 73.2548149 6.33384732 L 71.63177 6.33384732 L 71.63177 4.51287004 L 70.4639693 4.51287004 L 70.4639693 6.33384732 L 69.3159619 6.33384732 L 69.3159619 7.32350889 L 70.4639693 7.32350889 L 70.4639693 12.0738844 C 70.4639693 13.4000309 71.5328038 14.0334143 72.5224654 14.0334143 Z M 76.184218 13.9344482 L 76.184218 9.36221172 C 76.184218 8.03606522 77.0303786 7.28392243 78.1833344 7.28392243 C 79.2818587 7.28392243 79.944932 7.97668552 79.944932 9.18407264 L 79.944932 13.9344482 L 81.1127326 13.9344482 L 81.1127326 9.10489971 C 81.1127326 7.15031811 80.073588 6.23488116 78.5198193 6.23488116 C 77.3223288 6.23488116 76.6394623 6.73466026 76.2831842 7.5214412 L 76.184218 7.5214412 L 76.184218 3.80031371 L 75.0164173 3.80031371 L 75.0164173 13.9344482 L 76.184218 13.9344482 Z M 88.5549992 13.9344482 L 88.5549992 3.80031371 L 87.3278188 3.80031371 L 87.3278188 13.9344482 L 88.5549992 13.9344482 Z M 92.0188182 13.9344482 L 92.0188182 9.18407264 C 92.0188182 8.07070337 92.8303407 7.28392243 93.7408293 7.28392243 C 94.6265764 7.28392243 95.2451149 7.86287444 95.2451149 8.72882832 L 95.2451149 13.9344482 L 96.4327088 13.9344482 L 96.4327088 8.98614032 C 96.4327088 8.00637537 97.0462989 7.28392243 98.1151334 7.28392243 C 98.9464492 7.28392243 99.6590055 7.72432182 99.6590055 8.8475877 L 99.6590055 13.9344482 L 100.826806 13.9344482 L 100.826806 8.8475877 C 100.826806 7.06124857 99.8668344 6.23488116 98.5109981 6.23488116 C 97.4223703 6.23488116 96.6256928 6.73466026 96.2347765 7.5214412 L 96.1556035 7.5214412 C 95.7795321 6.70991872 95.1164589 6.23488116 94.1169007 6.23488116 C 93.1272391 6.23488116 92.3948896 6.70991872 92.0781979 7.5214412 L 91.9792317 7.5214412 L 91.9792317 6.33384732 L 90.8510175 6.33384732 L 90.8510175 13.9344482 L 92.0188182 13.9344482 Z M 105.201122 14.1125872 C 106.527268 14.1125872 107.220031 13.4000309 107.45755 12.9052001 L 107.51693 12.9052001 L 107.51693 13.9344482 L 108.684731 13.9344482 L 108.684731 8.92676063 C 108.684731 6.5119864 106.84396 6.23488116 105.874092 6.23488116 C 104.726084 6.23488116 103.419731 6.63074579 102.825934 8.01627199 L 103.934355 8.41213661 C 104.191667 7.85792614 104.800309 7.2641292 105.913678 7.2641292 C 106.987461 7.2641292 107.51693 7.8331846 107.51693 8.80800124 L 107.51693 8.8475877 C 107.51693 9.4116948 106.942926 9.36221172 105.5574 9.5403508 C 104.147132 9.72343819 102.608209 10.0351816 102.608209 11.7769859 C 102.608209 13.2614783 103.756216 14.1125872 105.201122 14.1125872 Z M 105.379261 13.063546 C 104.448979 13.063546 103.776009 12.6478881 103.776009 11.8363656 C 103.776009 10.9456702 104.587532 10.668565 105.49802 10.5498056 C 105.992851 10.4904259 107.318998 10.3518733 107.51693 10.1143545 L 107.51693 11.183189 C 107.51693 12.1332641 106.764787 13.063546 105.379261 13.063546 Z M 113.890358 16.9430193 C 115.711335 16.9430193 117.176034 16.1117036 117.176034 14.1521737 L 117.176034 6.33384732 L 116.04782 6.33384732 L 116.04782 7.54123443 L 115.929061 7.54123443 C 115.671749 7.14536981 115.196711 6.23488116 113.712219 6.23488116 C 111.792275 6.23488116 110.466129 7.75895998 110.466129 10.0945613 C 110.466129 12.469749 111.851655 13.8156888 113.692426 13.8156888 C 115.176918 13.8156888 115.651955 12.9447866 115.909267 12.5291287 L 116.008234 12.5291287 L 116.008234 14.0730008 C 116.008234 15.3397676 115.117538 15.9137713 113.890358 15.9137713 C 112.50978 15.9137713 112.024846 15.18637 111.713102 14.7657639 L 110.782821 15.4189405 C 111.257858 16.2156181 112.193088 16.9430193 113.890358 16.9430193 Z M 113.850771 12.7666475 C 112.386072 12.7666475 111.633929 11.6582266 111.633929 10.074768 C 111.633929 8.530896 112.366279 7.28392243 113.850771 7.28392243 C 115.275884 7.28392243 116.028027 8.43192984 116.028027 10.074768 C 116.028027 11.7571927 115.256091 12.7666475 113.850771 12.7666475 Z M 119.907508 5.06708051 C 120.362753 5.06708051 120.738824 4.71080235 120.738824 4.27535126 C 120.738824 3.83990017 120.362753 3.48362201 119.907508 3.48362201 C 119.452264 3.48362201 119.076193 3.83990017 119.076193 4.27535126 C 119.076193 4.71080235 119.452264 5.06708051 119.907508 5.06708051 Z M 120.481512 13.9344482 L 120.481512 6.33384732 L 119.313711 6.33384732 L 119.313711 13.9344482 L 120.481512 13.9344482 Z M 123.786985 13.9344482 L 123.786985 9.36221172 C 123.786985 8.03606522 124.608404 7.28392243 125.726721 7.28392243 C 126.810401 7.28392243 127.468526 7.99153045 127.468526 9.18407264 L 127.468526 13.9344482 L 128.636326 13.9344482 L 128.636326 9.10489971 C 128.636326 7.16516304 127.60213 6.23488116 126.063206 6.23488116 C 124.915199 6.23488116 124.202643 6.74950518 123.846364 7.5214412 L 123.747398 7.5214412 L 123.747398 6.33384732 L 122.619184 6.33384732 L 122.619184 13.9344482 L 123.786985 13.9344482 Z M 133.841954 16.9430193 C 135.662931 16.9430193 137.127631 16.1117036 137.127631 14.1521737 L 137.127631 6.33384732 L 135.999416 6.33384732 L 135.999416 7.54123443 L 135.880657 7.54123443 C 135.623345 7.14536981 135.148307 6.23488116 133.663815 6.23488116 C 131.743872 6.23488116 130.417725 7.75895998 130.417725 10.0945613 C 130.417725 12.469749 131.803251 13.8156888 133.644022 13.8156888 C 135.128514 13.8156888 135.603552 12.9447866 135.860864 12.5291287 L 135.95983 12.5291287 L 135.95983 14.0730008 C 135.95983 15.3397676 135.069134 15.9137713 133.841954 15.9137713 C 132.461376 15.9137713 131.976442 15.18637 131.664699 14.7657639 L 130.734417 15.4189405 C 131.209454 16.2156181 132.144685 16.9430193 133.841954 16.9430193 Z M 133.802368 12.7666475 C 132.337669 12.7666475 131.585526 11.6582266 131.585526 10.074768 C 131.585526 8.530896 132.317875 7.28392243 133.802368 7.28392243 C 135.22748 7.28392243 135.979623 8.43192984 135.979623 10.074768 C 135.979623 11.7571927 135.207687 12.7666475 133.802368 12.7666475 Z M 144.569897 13.9344482 L 144.569897 9.40179818 L 148.963995 9.40179818 L 148.963995 8.31317046 L 144.569897 8.31317046 L 144.569897 4.88894143 L 149.419239 4.88894143 L 149.419239 3.80031371 L 143.342717 3.80031371 L 143.342717 13.9344482 L 144.569897 13.9344482 Z M 154.446728 14.092794 C 156.505224 14.092794 157.89075 12.5291287 157.89075 10.1737342 C 157.89075 7.79854644 156.505224 6.23488116 154.446728 6.23488116 C 152.388232 6.23488116 151.002705 7.79854644 151.002705 10.1737342 C 151.002705 12.5291287 152.388232 14.092794 154.446728 14.092794 Z M 154.446728 13.0437527 C 152.883062 13.0437527 152.170506 11.697813 152.170506 10.1737342 C 152.170506 8.64965539 152.883062 7.28392243 154.446728 7.28392243 C 156.010393 7.28392243 156.722949 8.64965539 156.722949 10.1737342 C 156.722949 11.697813 156.010393 13.0437527 154.446728 13.0437527 Z M 162.126509 14.0334143 C 163.274517 14.0334143 164.026659 13.4198241 164.382938 12.6478881 L 164.462111 12.6478881 L 164.462111 13.9344482 L 165.629911 13.9344482 L 165.629911 6.33384732 L 164.462111 6.33384732 L 164.462111 10.8269108 C 164.462111 12.2520235 163.373483 12.9052001 162.502581 12.9052001 C 161.532712 12.9052001 160.839949 12.1926438 160.839949 11.0842228 L 160.839949 6.33384732 L 159.672149 6.33384732 L 159.672149 11.1633958 C 159.672149 13.1031324 160.701397 14.0334143 162.126509 14.0334143 Z M 168.935389 13.9344482 L 168.935389 9.36221172 C 168.935389 8.03606522 169.756808 7.28392243 170.875125 7.28392243 C 171.958805 7.28392243 172.61693 7.99153045 172.61693 9.18407264 L 172.61693 13.9344482 L 173.78473 13.9344482 L 173.78473 9.10489971 C 173.78473 7.16516304 172.750534 6.23488116 171.21161 6.23488116 C 170.063603 6.23488116 169.351046 6.74950518 168.994768 7.5214412 L 168.895802 7.5214412 L 168.895802 6.33384732 L 167.767588 6.33384732 L 167.767588 13.9344482 L 168.935389 13.9344482 Z M 178.792426 14.092794 C 180.257125 14.092794 180.751955 13.1823054 181.009267 12.7666475 L 181.14782 12.7666475 L 181.14782 13.9344482 L 182.276034 13.9344482 L 182.276034 3.80031371 L 181.108234 3.80031371 L 181.108234 7.54123443 L 181.009267 7.54123443 C 180.751955 7.14536981 180.296711 6.23488116 178.812219 6.23488116 C 176.892275 6.23488116 175.566129 7.75895998 175.566129 10.153941 C 175.566129 12.5687152 176.892275 14.092794 178.792426 14.092794 Z M 178.950771 13.0437527 C 177.486072 13.0437527 176.733929 11.7571927 176.733929 10.1341477 C 176.733929 8.530896 177.466279 7.28392243 178.950771 7.28392243 C 180.375884 7.28392243 181.128027 8.43192984 181.128027 10.1341477 C 181.128027 11.8561589 180.356091 13.0437527 178.950771 13.0437527 Z M 186.808692 14.1125872 C 188.134839 14.1125872 188.827602 13.4000309 189.065121 12.9052001 L 189.124501 12.9052001 L 189.124501 13.9344482 L 190.292301 13.9344482 L 190.292301 8.92676063 C 190.292301 6.5119864 188.451531 6.23488116 187.481662 6.23488116 C 186.333655 6.23488116 185.027302 6.63074579 184.433505 8.01627199 L 185.541926 8.41213661 C 185.799238 7.85792614 186.40788 7.2641292 187.521249 7.2641292 C 188.595032 7.2641292 189.124501 7.8331846 189.124501 8.80800124 L 189.124501 8.8475877 C 189.124501 9.4116948 188.550497 9.36221172 187.164971 9.5403508 C 185.754703 9.72343819 184.215779 10.0351816 184.215779 11.7769859 C 184.215779 13.2614783 185.363787 14.1125872 186.808692 14.1125872 Z M 186.986832 13.063546 C 186.05655 13.063546 185.38358 12.6478881 185.38358 11.8363656 C 185.38358 10.9456702 186.195102 10.668565 187.105591 10.5498056 C 187.600422 10.4904259 188.926568 10.3518733 189.124501 10.1143545 L 189.124501 11.183189 C 189.124501 12.1332641 188.372358 13.063546 186.986832 13.063546 Z M 195.003098 14.0334143 C 195.438549 14.0334143 195.715654 13.9542414 195.874 13.8948617 L 195.636481 12.8458204 C 195.537515 12.8656137 195.379169 12.9052001 195.121857 12.9052001 C 194.607233 12.9052001 194.112402 12.7468543 194.112402 11.7571927 L 194.112402 7.32350889 L 195.735447 7.32350889 L 195.735447 6.33384732 L 194.112402 6.33384732 L 194.112402 4.51287004 L 192.944602 4.51287004 L 192.944602 6.33384732 L 191.796594 6.33384732 L 191.796594 7.32350889 L 192.944602 7.32350889 L 192.944602 12.0738844 C 192.944602 13.4000309 194.013436 14.0334143 195.003098 14.0334143 Z M 198.090847 5.06708051 C 198.546091 5.06708051 198.922162 4.71080235 198.922162 4.27535126 C 198.922162 3.83990017 198.546091 3.48362201 198.090847 3.48362201 C 197.635602 3.48362201 197.259531 3.83990017 197.259531 4.27535126 C 197.259531 4.71080235 197.635602 5.06708051 198.090847 5.06708051 Z M 198.66485 13.9344482 L 198.66485 6.33384732 L 197.49705 6.33384732 L 197.49705 13.9344482 L 198.66485 13.9344482 Z M 203.890267 14.092794 C 205.948763 14.092794 207.334289 12.5291287 207.334289 10.1737342 C 207.334289 7.79854644 205.948763 6.23488116 203.890267 6.23488116 C 201.831771 6.23488116 200.446244 7.79854644 200.446244 10.1737342 C 200.446244 12.5291287 201.831771 14.092794 203.890267 14.092794 Z M 203.890267 13.0437527 C 202.326601 13.0437527 201.614045 11.697813 201.614045 10.1737342 C 201.614045 8.64965539 202.326601 7.28392243 203.890267 7.28392243 C 205.453932 7.28392243 206.166488 8.64965539 206.166488 10.1737342 C 206.166488 11.697813 205.453932 13.0437527 203.890267 13.0437527 Z M 210.283488 13.9344482 L 210.283488 9.36221172 C 210.283488 8.03606522 211.104907 7.28392243 212.223225 7.28392243 C 213.306904 7.28392243 213.965029 7.99153045 213.965029 9.18407264 L 213.965029 13.9344482 L 215.13283 13.9344482 L 215.13283 9.10489971 C 215.13283 7.16516304 214.098634 6.23488116 212.55971 6.23488116 C 211.411702 6.23488116 210.699146 6.74950518 210.342868 7.5214412 L 210.243902 7.5214412 L 210.243902 6.33384732 L 209.115688 6.33384732 L 209.115688 13.9344482 L 210.283488 13.9344482 Z" stroke-linecap="round" />
</g>
<g transform="matrix(0.52 0 0 0.52 99.84 97.33)"  >
<path style="stroke: none; stroke-width: 1; stroke-dasharray: none; stroke-linecap: butt; stroke-dashoffset: 0; stroke-linejoin: miter; stroke-miterlimit: 4; fill: rgb(255,134,0); fill-rule: evenodd; opacity: 1;" vector-effect="non-scaling-stroke"  transform=" translate(-203.34, -199.59)" d="M 181.551 29.714 C 180.243 31.022 179.592 38.235 179.592 51.403 L 179.592 71.132 L 170.953 79.663 C 162.501 88.011 162.154 88.172 154.864 87.173 C 130.395 83.819 117.563 117.6 139.374 127.95 C 155.714 135.704 173.061 126.893 173.061 110.84 C 173.061 103.465 173.478 102.816 186.122 90.512 L 199.184 77.801 L 199.184 56.966 C 199.184 30.92 198.162 27.755 189.755 27.755 C 186.32 27.755 182.629 28.637 181.551 29.714 M 226.531 31.151 C 223.931 32.665 223.675 36.446 223.692 73.142 L 223.711 113.469 L 210.693 125.714 C 198.622 137.068 197.217 137.924 191.395 137.472 C 171.487 135.929 160.171 160.925 174.357 175.11 C 188.833 189.587 213.673 178.007 211.95 157.585 C 211.46 151.766 212.276 150.527 225.714 136.704 L 240 122.009 L 240 77.29 L 240 32.572 L 235.812 30.98 C 230.711 29.041 230.136 29.051 226.531 31.151 M 263.013 56.446 C 252.602 65.206 252.959 82.402 263.73 90.996 L 269.388 95.51 L 269.388 124.92 L 269.388 154.329 L 246.531 177.143 L 223.673 199.956 L 223.673 253.172 L 223.673 306.387 L 219.868 308.423 C 207.288 315.156 207.11 340.732 219.604 346.425 C 223.15 348.041 223.587 349.368 224.015 359.823 L 224.49 371.429 L 231.837 371.429 L 239.184 371.429 L 239.659 359.823 C 240.087 349.368 240.524 348.041 244.07 346.425 C 248.841 344.251 253.049 336.572 253.75 328.759 C 254.177 323.996 256.858 320.353 269.174 307.799 L 284.082 292.604 L 284.082 251.178 L 284.082 209.751 L 306.122 187.755 L 328.163 165.76 L 328.163 126.854 C 328.163 83.687 327.755 81.633 319.184 81.633 C 310.71 81.633 310.204 83.948 310.204 122.76 L 310.204 157.572 L 288.98 179.219 L 267.755 200.865 L 267.755 241.287 L 267.755 281.709 L 255.016 294.374 C 248.009 301.339 241.764 306.526 241.138 305.9 C 240.512 305.274 240 283.35 240 257.179 L 240 209.596 L 263.673 186.066 L 287.347 162.537 L 287.347 129.322 L 287.347 96.107 L 293.061 90.718 C 313.814 71.146 284.831 38.088 263.013 56.446 M 93.994 59.708 C 91.847 61.856 91.429 67.198 91.429 92.489 L 91.429 122.704 L 113.469 144.937 C 136.777 168.448 139.539 173.243 131.528 176.289 C 113.186 183.263 123.935 217.143 144.49 217.143 C 166.5 217.143 176.559 180.545 155.969 175.377 C 152.157 174.42 151.837 173.624 151.837 165.106 L 151.837 155.871 L 130.612 134.694 L 109.388 113.517 L 109.388 88.958 C 109.388 58.971 104.334 49.368 93.994 59.708 M 280.528 74.013 C 280.884 75.848 279.953 76.735 277.671 76.735 C 275.809 76.735 274.286 75.755 274.286 74.558 C 274.286 69.557 279.574 69.096 280.528 74.013 M 52.571 101.551 C 51.209 102.913 50.612 111.551 50.612 129.896 L 50.612 156.281 L 36.735 169.514 C 24.034 181.625 22.857 183.279 22.857 189.007 C 22.857 204.812 30.627 202.956 51.492 182.167 L 68.571 165.15 L 68.571 134.061 C 68.571 104.995 68.366 102.862 65.413 101.282 C 61.176 99.014 54.978 99.144 52.571 101.551 M 153.015 106.321 C 155.293 108.599 153.904 112.653 150.846 112.653 C 149.508 112.653 148.571 110.972 148.571 108.571 C 148.571 104.175 150.096 103.403 153.015 106.321 M 95.057 152.746 C 91.554 155.2 91.429 156.228 91.429 182.565 L 91.429 209.843 L 112.653 231.02 L 133.878 252.198 L 133.878 307.813 C 133.878 368.154 133.754 367.347 143.009 367.347 C 149.449 367.347 150.204 365.574 150.204 350.458 L 150.204 338.733 L 173.878 315.102 L 197.551 291.471 L 197.551 270.009 L 197.551 248.547 L 204.082 242.017 C 220.459 225.64 205.162 198.076 183.008 204.041 C 166.679 208.438 161.771 229.725 174.077 242.773 L 179.592 248.62 L 179.592 265.681 L 179.592 282.742 L 165.306 296.589 L 151.02 310.436 L 150.204 275.426 L 149.388 240.417 L 129.388 220.478 L 109.388 200.54 L 109.388 178.637 C 109.388 151.815 105.755 145.252 95.057 152.746 M 193.998 158.916 C 194.671 162.385 189.529 164.504 187.684 161.517 C 186.094 158.945 188.961 154.688 191.674 155.591 C 192.661 155.92 193.707 157.416 193.998 158.916 M 348.091 180.911 C 338.217 190.135 338.078 205.825 347.79 214.991 C 352.302 219.25 352.653 220.421 352.653 231.229 L 352.653 242.876 L 331.441 263.887 L 310.228 284.898 L 310.216 301.54 C 310.205 316.894 310.485 318.379 313.833 320.724 C 322.77 326.984 328.163 321.02 328.163 304.875 L 328.163 293.016 L 350.204 271.02 L 372.245 249.025 L 372.245 233.993 C 372.245 221.395 372.721 218.615 375.184 216.827 C 386.863 208.35 386.664 186.769 374.835 179.018 C 367.809 174.414 353.999 175.391 348.091 180.911 M 148.023 193.579 C 149.509 197.451 146.027 200.182 142.906 197.592 C 140.972 195.987 140.809 194.953 142.221 193.253 C 144.665 190.307 146.814 190.428 148.023 193.579 M 365.714 198.367 C 365.714 199.728 364.263 200.816 362.449 200.816 C 360.635 200.816 359.184 199.728 359.184 198.367 C 359.184 197.007 360.635 195.918 362.449 195.918 C 364.263 195.918 365.714 197.007 365.714 198.367 M 44.275 215.139 C 33.498 225.391 33.217 237.976 43.546 247.718 L 49.264 253.11 L 48.756 274.718 C 48.189 298.878 48.624 300.408 56.06 300.408 C 67.429 300.408 68.571 297.945 68.571 273.434 C 68.571 253.252 68.825 251.408 71.82 249.805 C 80.28 245.277 82.723 228.197 76.278 218.633 C 68.341 206.855 54.564 205.351 44.275 215.139 M 192.653 225.532 C 192.653 228.037 187.67 229.139 185.618 227.088 C 184.15 225.619 184.237 224.839 185.988 223.757 C 188.572 222.16 192.653 223.247 192.653 225.532 M 61.753 230.752 C 62.426 234.222 57.285 236.34 55.439 233.354 C 53.849 230.782 56.716 226.525 59.429 227.428 C 60.416 227.757 61.462 229.253 61.753 230.752 M 93.878 248.505 C 78.314 253.96 75.603 274.563 89.038 285.283 L 94.694 289.796 L 94.694 316.816 C 94.694 346.414 95.095 347.755 103.943 347.755 C 111.809 347.755 112.653 344.653 112.653 315.736 L 112.653 290.034 L 117.835 285.708 C 124.143 280.442 126.174 266.126 122.022 256.19 C 118.519 247.806 105.788 244.33 93.878 248.505 M 105.574 267.049 C 107.06 270.92 103.578 273.651 100.457 271.061 C 98.523 269.456 98.36 268.423 99.772 266.722 C 102.216 263.776 104.365 263.897 105.574 267.049 M 235.102 326.531 C 235.102 328.707 234.014 329.796 231.837 329.796 C 229.66 329.796 228.571 328.707 228.571 326.531 C 228.571 324.354 229.66 323.265 231.837 323.265 C 234.014 323.265 235.102 324.354 235.102 326.531" stroke-linecap="round" />
</g>
<g transform="matrix(0.97 0 0 0.97 713.55 210.16)" style=""  >
		<text xml:space="preserve" font-family="'Open Sans', sans-serif" font-size="14" font-style="normal" font-weight="bold" style="stroke: none; stroke-width: 1; stroke-dasharray: none; stroke-linecap: butt; stroke-dashoffset: 0; stroke-linejoin: miter; stroke-miterlimit: 4; fill: rgb(0,255,251); fill-rule: nonzero; opacity: 1; white-space: pre;" ><tspan x="-129.46" y="4.4" >WOW Digital Information Technology</tspan></text>
</g>
<g transform="matrix(0.97 0 0 0.97 521.1 368.5)"  >
	<image style="stroke: none; stroke-width: 0; stroke-dasharray: none; stroke-linecap: butt; stroke-dashoffset: 0; stroke-linejoin: miter; stroke-miterlimit: 4; fill: rgb(0,0,0); fill-rule: nonzero; opacity: 1;" vector-effect="non-scaling-stroke"  xlink:href="https://placekitten.com/110/150" x="-55" y="-75" width="110" height="150"></image>
</g>
</svg>